PathFileType	4	(X/Y/Z)	Patient4_TMGait_0pt3_03_right_20.trc.trc
DataRate	CameraRate	NumFrames	NumMarkers	Units	OrigDataRate	OrigDataStartFrame	OrigNumFrames
57.613168724280	57.613168724280	5	33	mm	57.613168724280	71	       141
Frame#	Time	Sacral			L.Shoulder			Chest			R.Shoulder			Neck			R.ASIS			L.ASIS			R.Thigh.Superior			R.Thigh.Lateral			R.Thigh.Inferior			R.Patella			L.Thigh.Superior			L.Thigh.Lateral			L.Thigh.Inferior			L.Patella			L.Shank.Superior			L.Shank.Lateral			L.Shank.Inferior			R.Shank.Superior			R.Shank.Lateral			R.Shank.Inferior			R.Heel			R.Midfoot.Superior			R.Midfoot.Lateral			R.Toe			L.Heel			L.Midfoot.Lateral			L.Midfoot.Superior			L.Toe			L.Elbow			L.Wrist			R.Elbow			R.Wrist			
		X1	Y1	Z1	X2	Y2	Z2	X3	Y3	Z3	X4	Y4	Z4	X5	Y5	Z5	X6	Y6	Z6	X7	Y7	Z7	X8	Y8	Z8	X9	Y9	Z9	X10	Y10	Z10	X11	Y11	Z11	X12	Y12	Z12	X13	Y13	Z13	X14	Y14	Z14	X15	Y15	Z15	X16	Y16	Z16	X17	Y17	Z17	X18	Y18	Z18	X19	Y19	Z19	X20	Y20	Z20	X21	Y21	Z21	X22	Y22	Z22	X23	Y23	Z23	X24	Y24	Z24	X25	Y25	Z25	X26	Y26	Z26	X27	Y27	Z27	X28	Y28	Z28	X29	Y29	Z29	X30	Y30	Z30	X31	Y31	Z31	X32	Y32	Z32	X33	Y33	Z33	

71	38.735000000000	724.743808436490	1009.021966121316	563.604270773856	892.088007877064	1422.938156292253	351.238677368948	1018.765516130198	1351.349363019481	492.896782500763	972.166794634094	1432.811391718510	675.656040668039	899.266223208809	1486.199301088881	506.452794570202	963.200233466839	926.062514944422	641.399796064266	910.130762380148	959.035196124177	373.534308196086	969.685934068769	716.552376260962	603.844327613989	885.844722176988	615.006151951040	675.406572574382	941.368254677870	555.597150392666	584.239392785689	929.949873627530	465.255498160360	591.600227746102	977.069832261467	761.832639566318	398.459879949367	913.611321151289	640.493829650265	322.650804638058	1010.470976211776	573.549012345737	383.878236547763	1029.564849818062	509.346137192087	380.924745905372	1011.779880205522	438.564755583377	366.649840683789	943.218241373051	312.873924463803	307.474103193261	1023.910747498259	208.222583651158	362.823618628843	882.157245557534	382.997275309636	604.296560616786	797.763190337640	295.776179071340	675.372886225933	809.381877179815	195.546045696072	610.675409884873	643.988859766096	46.339634574962	594.684828433020	817.647391275722	96.032480987510	624.037788016658	729.158294898400	38.154366931268	666.472535986330	936.885517670876	40.397471023234	650.636179089909	926.834029023372	37.677567712776	389.775906642900	1006.932328357597	36.736113922311	315.315291783680	1082.997405385533	106.433898102048	344.030090209436	1215.088988403916	64.891207694849	326.906884287491	740.401587867535	1099.644885469806	274.542535752467	718.701318436105	840.813626511465	316.359352764719	1149.477126523190	1156.469146479195	796.693105895844	1371.029636226507	1265.025867715649	742.486493844006	
72	38.752357142857	725.298788322828	1008.591079821901	559.652946916062	893.877646690344	1421.570851004970	346.716089732229	1020.136546154725	1350.215667159093	488.905065090643	973.066338687949	1432.303056359298	671.263320010391	900.579256309425	1485.381486591922	501.839398253832	963.477001574536	925.108152872581	638.416292348228	911.055830252017	957.761454217921	370.338062478857	968.975490252552	715.439459088576	601.439006268133	884.218646823459	614.596727341633	673.234589575709	939.466617443432	554.527747611811	582.510053303531	927.178482101278	464.263162989133	590.086286982452	977.199921230837	760.009168607650	394.609348819861	911.399276273155	638.870197962515	320.403493286304	1008.501075135389	572.044357620857	380.929027036082	1026.018617599141	507.730612210594	378.905694574747	1009.278269816903	436.930534919133	364.715155390426	941.136324695811	310.899300226708	306.408647432206	1022.072616636840	206.928565694400	362.414754930739	878.996189513276	382.365561357856	603.052554679690	794.007103186108	295.984187043486	674.584656693035	805.087500977877	195.459020828984	610.234177910857	638.844922255220	46.862713336603	594.752166799827	812.752051001209	96.150039576112	624.010078702351	724.024669291359	38.456742066653	666.510350108067	931.710386578805	40.261242455836	650.648321080745	924.828887724408	37.500163180376	390.164439876834	1004.755734420205	36.295751345868	315.423517969413	1081.245612740372	105.121846114037	344.378828064614	1213.026083079995	62.617401302341	326.988063199635	742.684627721659	1097.942889780859	270.861332123429	721.129111345671	838.989542194644	312.841646327097	1153.457704938998	1158.360784226143	791.605576161943	1371.477538143506	1273.292602017235	736.991316691665	
73	38.769714285714	725.902320687346	1008.113242810817	555.542323036189	895.669652883692	1420.157200739200	341.961723978604	1021.473081836768	1349.140405866273	484.762734258894	973.808960659395	1431.791079921718	666.736742762006	901.845196514374	1484.586098455576	497.002163918951	963.860976657421	924.230877248750	635.288588268948	912.082119392690	956.568944310464	366.981466255781	968.621487717464	714.413190551038	598.851967338132	883.044882686006	614.184592786311	670.850348974168	938.118281321100	553.492985672517	580.598056703805	925.018032866490	463.231236820594	588.380811173782	977.954809595718	758.733734897573	390.784050810137	910.200177003114	637.562040190752	318.265977281370	1007.648349198716	571.004033278255	378.047708598786	1023.551357081593	506.275086385558	376.935230928084	1007.473746063279	435.320876649043	362.894505381326	939.003830667049	309.407577780710	305.386721508004	1019.405358778635	205.605376523327	362.117519147188	876.293143329468	381.729304809224	601.654047003310	790.610261379311	296.336780290932	673.706776502000	801.038418364229	195.480350858067	609.752850086604	633.762631105948	47.707144891157	594.847455154173	807.988885673826	96.343649244279	623.987797140450	718.951433864977	38.944444758851	666.556364163441	926.573465812326	40.070540182677	650.665805890847	921.033454964945	37.536456682341	390.734236418176	1000.622150401401	36.018128714158	315.545533966722	1077.782192002264	103.782051066907	344.685532497226	1209.118672713937	60.087720851971	326.659969128313	746.000054176778	1095.630629902452	266.811991272232	724.858197584578	836.517471868321	308.473160612233	1156.195480362874	1159.284246714135	786.510287595981	1371.478584505055	1279.005328797292	731.864984546146	
74	38.787071428571	726.581636346755	1007.735272650954	551.316087679858	897.428564060230	1418.858737428426	337.043781992652	1022.772690431048	1348.254835320718	480.489380802283	974.454928976231	1431.399280486583	662.110118907716	903.056756168268	1483.934809887536	492.001676025053	964.339621469089	923.553532907212	632.016048973874	913.211759686870	955.594720984615	363.463355908635	968.490661361083	713.560803064924	596.126944454492	882.166222789042	613.890884928536	668.328672049341	937.146274984035	552.588751477656	578.580440120494	923.295186014533	462.278682642618	586.585313389222	979.238789956165	758.058577691959	387.065823580759	909.967724898345	636.649250918783	316.180739804227	1007.752608520920	570.409804689240	375.270395674848	1022.093492209134	505.070636014567	375.041538076369	1006.345166428963	433.853926081727	361.215729996545	937.037060249521	308.387356433999	304.307812417893	1016.235104464436	204.335164639108	361.895575668146	873.917700631561	381.203227908847	600.180809734062	787.470160763825	296.903362473750	672.783883058154	797.186252477429	195.685754576264	609.265647972180	628.753037761153	48.929308413766	594.966598938321	803.364978600450	96.624663099906	623.973626854398	713.946522296539	39.651772287518	666.607334917685	921.477336391651	39.823631445268	650.685620075051	916.014216133523	37.684505293035	391.327344272226	995.203475534745	35.847182887434	315.632728412286	1073.142733266099	102.506090808095	344.943464150880	1203.994321489001	57.580920409763	326.117489545023	750.222519981310	1092.944070656812	262.393636889883	729.892377152111	833.629478863570	303.245847221334	1157.660665649668	1159.275451144404	781.438936376762	1371.136673497654	1282.171447009970	727.121392504604	
75	38.804428571429	727.362731167825	1007.563188790969	546.997663752535	899.129999259756	1417.805510437590	332.029664743626	1024.030115969997	1347.660349443121	476.117143996908	975.038600845283	1431.221452105476	657.422391242979	904.200397870021	1483.518391818738	486.901465296862	964.898950951845	923.168993437320	628.617100692768	914.471131007749	954.920852586616	359.800947970781	968.461152371818	712.949914735053	593.324985048175	881.431837864333	613.817423496926	665.751219707076	936.380587530790	551.897058998085	576.539397780109	921.841947537354	461.507624263792	584.804534366840	980.931159637968	757.936664833086	383.531778600393	910.582268708602	636.139415650929	314.092330457385	1008.587673347930	570.179036485469	372.641260674184	1021.495209896500	504.140303058693	373.255615911363	1005.791796021934	432.592379782503	359.697950876803	935.349969691359	307.784764251805	303.128530751519	1012.816158963513	203.176302283697	361.725392201433	871.745613072241	380.882554739059	598.711355496985	784.487993182005	297.735234588748	671.854881986552	793.482446396653	196.133001080708	608.801719480843	623.826246585363	50.565004579328	595.097754117356	798.880662664660	96.998869924783	623.965662217710	709.014577474452	40.602716454946	666.655926799634	916.421733297365	39.523635169515	650.703393223584	910.276329319444	37.871309062025	391.836601302697	989.083805417338	35.745601673114	315.663198538512	1067.801468890767	101.362152725904	345.159232323931	1198.193913747010	55.304184906135	325.522360518547	755.189057139631	1090.121066955021	257.603029580703	736.219620862335	830.563384782874	297.169914555942	1157.867009264414	1158.406702028666	776.407888206644	1370.558822015764	1282.841282293752	722.770733036020	
